<?xml version="1.0" encoding="UTF-8" standalone="no"?>
<svg
   xmlns:dc="http://purl.org/dc/elements/1.1/"
   xmlns:cc="http://creativecommons.org/ns#"
   xmlns:rdf="http://www.w3.org/1999/02/22-rdf-syntax-ns#"
   xmlns:svg="http://www.w3.org/2000/svg"
   xmlns="http://www.w3.org/2000/svg"
   xmlns:xlink="http://www.w3.org/1999/xlink"
   xmlns:sodipodi="http://sodipodi.sourceforge.net/DTD/sodipodi-0.dtd"
   xmlns:inkscape="http://www.inkscape.org/namespaces/inkscape"
   width="372.70682mm"
   height="79.459663mm"
   viewBox="0 0 372.70682 79.459663"
   version="1.1"
   id="svg3471"
   inkscape:version="1.0 (4035a4f, 2020-05-01)"
   sodipodi:docname="anakeebLogo.svg">
  <defs
     id="defs3465">
    <linearGradient
       gradientTransform="translate(-2599.3295,-2955.468)"
       gradientUnits="userSpaceOnUse"
       y2="3057.8828"
       x2="2612.5127"
       y1="2978.4231"
       x1="2533.053"
       id="linearGradient1739-4"
       xlink:href="#linearGradient1569"
       inkscape:collect="always" />
    <linearGradient
       inkscape:collect="always"
       id="linearGradient1569">
      <stop
         style="stop-color:#ef9feb;stop-opacity:1"
         offset="0"
         id="stop1565" />
      <stop
         id="stop1590"
         offset="0.48971918"
         style="stop-color:#bf9feb;stop-opacity:1" />
      <stop
         style="stop-color:#9fa5eb;stop-opacity:1"
         offset="1"
         id="stop1567" />
    </linearGradient>
  </defs>
  <sodipodi:namedview
     inkscape:snap-bbox-edge-midpoints="true"
     inkscape:snap-intersection-paths="true"
     inkscape:snap-object-midpoints="true"
     inkscape:snap-bbox-midpoints="true"
     inkscape:snap-bbox="true"
     id="base"
     pagecolor="#ffffff"
     bordercolor="#666666"
     borderopacity="1.0"
     inkscape:pageopacity="0.0"
     inkscape:pageshadow="2"
     inkscape:zoom="0.38771656"
     inkscape:cx="852.68302"
     inkscape:cy="660.84235"
     inkscape:document-units="mm"
     inkscape:current-layer="layer1"
     inkscape:document-rotation="0"
     showgrid="false"
     fit-margin-top="0"
     fit-margin-left="0"
     fit-margin-right="0"
     fit-margin-bottom="0"
     inkscape:window-width="1440"
     inkscape:window-height="900"
     inkscape:window-x="0"
     inkscape:window-y="0"
     inkscape:window-maximized="0" />
  <metadata
     id="metadata3468">
    <rdf:RDF>
      <cc:Work
         rdf:about="">
        <dc:format>image/svg+xml</dc:format>
        <dc:type
           rdf:resource="http://purl.org/dc/dcmitype/StillImage" />
        <dc:title></dc:title>
      </cc:Work>
    </rdf:RDF>
  </metadata>
  <g
     inkscape:label="Layer 1"
     inkscape:groupmode="layer"
     id="layer1"
     transform="translate(66.27655,-22.949993)">
    <path
       id="rect1525-8-0"
       style="font-style:normal;font-variant:normal;font-weight:900;font-stretch:normal;font-size:14.1111px;line-height:1.25;font-family:'Arial Black';-inkscape-font-specification:'Arial Black, Heavy';font-variant-ligatures:normal;font-variant-caps:normal;font-variant-numeric:normal;font-variant-east-asian:normal;fill:url(#linearGradient1739-4);fill-opacity:1;stroke:none;stroke-width:40;stroke-linecap:round;stroke-linejoin:round;stroke-miterlimit:4;stroke-dasharray:none;paint-order:fill markers stroke"
       d="M -54.704754,22.949993 H 1.6113167 c 6.4107752,0 11.5717963,5.161021 11.5717963,11.571797 v 56.31607 c 0,6.410775 -5.1610211,11.5718 -11.5717963,11.5718 H -54.704754 c -6.410775,0 -11.571796,-5.161025 -11.571796,-11.5718 V 34.52179 c 0,-6.410776 5.161021,-11.571797 11.571796,-11.571797 z" />
    <g
       style="font-style:italic;font-variant:normal;font-weight:bold;font-stretch:normal;font-size:141.111px;line-height:1.25;font-family:Arial;-inkscape-font-specification:'Arial, Bold Italic';font-variant-ligatures:normal;font-variant-caps:normal;font-variant-numeric:normal;font-variant-east-asian:normal;stroke-width:0.264583"
       id="text858"
       aria-label="nakeeb">
      <path
         id="path901"
         style="font-style:normal;font-variant:normal;font-weight:800;font-stretch:normal;font-size:81.1389px;font-family:Raleway;-inkscape-font-specification:'Raleway, Ultra-Bold';font-variant-ligatures:normal;font-variant-caps:normal;font-variant-numeric:normal;font-variant-east-asian:normal;stroke-width:0.264583"
         d="M 62.910864,86.275879 H 49.92864 V 62.339903 q 0,-4.219223 -1.622778,-6.085417 -1.541639,-1.947334 -4.138084,-1.947334 -1.785055,0 -3.65125,0.973667 -1.866195,0.973667 -3.407834,2.677584 -1.4605,1.703916 -2.271889,3.894667 V 86.275879 H 21.854581 V 43.677956 h 11.684001 v 7.140223 q 1.622778,-2.515306 4.056945,-4.300361 2.434167,-1.785056 5.598585,-2.677584 3.164417,-0.973667 6.896806,-0.973667 4.138084,0 6.65339,1.541639 2.596445,1.4605 3.894667,3.894667 1.379361,2.434167 1.785056,5.274029 0.486833,2.758723 0.486833,5.436306 z" />
      <path
         id="path903"
         style="font-style:normal;font-variant:normal;font-weight:800;font-stretch:normal;font-size:81.1389px;font-family:Raleway;-inkscape-font-specification:'Raleway, Ultra-Bold';font-variant-ligatures:normal;font-variant-caps:normal;font-variant-numeric:normal;font-variant-east-asian:normal;stroke-width:0.264583"
         d="m 68.77949,73.537071 q 0,-4.219222 2.353028,-7.383639 2.353028,-3.164418 6.491112,-4.949473 4.138084,-1.866195 9.493252,-1.866195 2.596445,0 5.11175,0.486833 2.515306,0.405695 4.381501,1.217084 v -1.866195 q 0,-3.488973 -2.109611,-5.355167 -2.109612,-1.866195 -6.409973,-1.866195 -3.570112,0 -6.734529,1.217083 -3.083278,1.217084 -6.572251,3.488973 l -3.894667,-8.276168 q 4.219222,-2.758722 8.763001,-4.138084 4.624917,-1.379361 9.736668,-1.379361 9.57439,0 14.848419,4.624917 5.35517,4.543779 5.35517,13.225641 v 11.11603 q 0,1.947333 0.56797,2.758722 0.64911,0.73025 2.19075,0.892528 v 10.791474 q -1.62278,0.324556 -3.08328,0.486833 -1.37936,0.162278 -2.43417,0.162278 -3.65125,0 -5.59858,-1.4605 -1.866194,-1.4605 -2.353028,-3.975806 l -0.243416,-1.866195 q -2.839862,3.651251 -6.815668,5.598584 -3.894667,1.866195 -8.195029,1.866195 -4.219223,0 -7.627057,-1.785056 Q 72.674157,83.517156 70.726824,80.433878 68.77949,77.3506 68.77949,73.537071 Z m 25.802171,1.622779 q 0.892528,-0.730251 1.4605,-1.622779 0.567972,-0.892527 0.567972,-1.703916 v -3.813529 q -1.622778,-0.649111 -3.65125,-0.973667 -1.947334,-0.405694 -3.651251,-0.405694 -3.570112,0 -5.92314,1.622778 -2.353028,1.541639 -2.353028,4.138084 0,1.4605 0.811389,2.677584 0.811389,1.217083 2.190751,1.947333 1.4605,0.73025 3.407833,0.73025 1.947334,0 3.894668,-0.73025 1.947333,-0.73025 3.245556,-1.866194 z" />
      <path
         id="path905"
         style="font-style:normal;font-variant:normal;font-weight:800;font-stretch:normal;font-size:81.1389px;font-family:Raleway;-inkscape-font-specification:'Raleway, Ultra-Bold';font-variant-ligatures:normal;font-variant-caps:normal;font-variant-numeric:normal;font-variant-east-asian:normal;stroke-width:0.264583"
         d="M 147.64143,86.275879 136.5254,69.23671 131.98163,73.861627 V 86.275879 H 118.9994 V 27.044481 h 12.98223 v 34.240616 l 14.44272,-17.607141 h 13.71247 l -15.33525,18.337392 16.63348,24.260531 z" />
      <path
         id="path907"
         style="font-style:normal;font-variant:normal;font-weight:800;font-stretch:normal;font-size:81.1389px;font-family:Raleway;-inkscape-font-specification:'Raleway, Ultra-Bold';font-variant-ligatures:normal;font-variant-caps:normal;font-variant-numeric:normal;font-variant-east-asian:normal;stroke-width:0.264583"
         d="m 183.42116,87.087268 q -5.43631,0 -9.65553,-1.703917 -4.21922,-1.785056 -7.22136,-4.787195 -2.921,-3.002139 -4.46264,-6.896807 -1.54164,-3.975806 -1.54164,-8.276168 0,-6.166556 2.67758,-11.197168 2.75873,-5.111751 7.87048,-8.195029 5.11175,-3.164417 12.33311,-3.164417 7.22136,0 12.25197,3.083278 5.11175,3.083278 7.78934,8.11389 2.67758,4.949473 2.67758,10.791474 0,1.135945 -0.16228,2.271889 -0.0811,1.054806 -0.16227,1.866195 h -31.4819 q 0.24342,2.839862 1.54164,4.787195 1.37936,1.947334 3.48897,3.00214 2.10962,0.973666 4.46264,0.973666 2.921,0 5.43631,-1.379361 2.59644,-1.379361 3.57011,-3.732389 l 11.03489,3.083278 q -1.62278,3.326695 -4.62492,5.92314 -2.921,2.515305 -6.97794,3.975806 -3.97581,1.4605 -8.84414,1.4605 z m -9.41211,-26.045587 h 18.49967 q -0.32456,-2.677584 -1.54164,-4.624918 -1.21709,-2.028472 -3.24556,-3.083278 -2.02847,-1.135944 -4.46264,-1.135944 -2.5153,0 -4.54378,1.135944 -1.94733,1.054806 -3.16441,3.083278 -1.21709,1.947334 -1.54164,4.624918 z" />
      <path
         id="path909"
         style="font-style:normal;font-variant:normal;font-weight:800;font-stretch:normal;font-size:81.1389px;font-family:Raleway;-inkscape-font-specification:'Raleway, Ultra-Bold';font-variant-ligatures:normal;font-variant-caps:normal;font-variant-numeric:normal;font-variant-east-asian:normal;stroke-width:0.264583"
         d="m 232.38974,87.087268 q -5.43631,0 -9.65553,-1.703917 -4.21922,-1.785056 -7.22136,-4.787195 -2.921,-3.002139 -4.46264,-6.896807 -1.54164,-3.975806 -1.54164,-8.276168 0,-6.166556 2.67758,-11.197168 2.75873,-5.111751 7.87048,-8.195029 5.11175,-3.164417 12.33311,-3.164417 7.22136,0 12.25197,3.083278 5.11176,3.083278 7.78934,8.11389 2.67758,4.949473 2.67758,10.791474 0,1.135945 -0.16227,2.271889 -0.0811,1.054806 -0.16228,1.866195 h -31.4819 q 0.24342,2.839862 1.54164,4.787195 1.37936,1.947334 3.48898,3.00214 2.10961,0.973666 4.46264,0.973666 2.921,0 5.4363,-1.379361 2.59645,-1.379361 3.57011,-3.732389 l 11.03489,3.083278 q -1.62277,3.326695 -4.62491,5.92314 -2.921,2.515305 -6.97795,3.975806 -3.9758,1.4605 -8.84414,1.4605 z m -9.41211,-26.045587 h 18.49967 q -0.32456,-2.677584 -1.54164,-4.624918 -1.21708,-2.028472 -3.24556,-3.083278 -2.02847,-1.135944 -4.46264,-1.135944 -2.5153,0 -4.54378,1.135944 -1.94733,1.054806 -3.16441,3.083278 -1.21709,1.947334 -1.54164,4.624918 z" />
      <path
         id="path911"
         style="font-style:normal;font-variant:normal;font-weight:800;font-stretch:normal;font-size:81.1389px;font-family:Raleway;-inkscape-font-specification:'Raleway, Ultra-Bold';font-variant-ligatures:normal;font-variant-caps:normal;font-variant-numeric:normal;font-variant-east-asian:normal;stroke-width:0.264583"
         d="m 286.55123,87.087268 q -4.86834,0 -8.51959,-2.028473 -3.65125,-2.109611 -5.76086,-5.842 v 7.059084 H 260.99247 V 27.044481 h 12.98223 v 23.61142 q 2.10961,-3.732389 5.59858,-5.760861 3.57011,-2.028473 8.35731,-2.028473 4.05694,0 7.38364,1.785056 3.40783,1.703917 5.842,4.787195 2.51531,3.002139 3.89467,7.059084 1.37936,3.975806 1.37936,8.681863 0,4.624917 -1.54164,8.600723 -1.4605,3.975806 -4.13808,6.977946 -2.67759,3.002139 -6.32884,4.706056 -3.57011,1.622778 -7.87047,1.622778 z m -3.65125,-10.953752 q 2.19075,0 4.05694,-0.811389 1.94734,-0.892528 3.3267,-2.353028 1.37936,-1.4605 2.10961,-3.407834 0.73025,-2.028472 0.73025,-4.3815 0,-3.00214 -1.21708,-5.598584 -1.21709,-2.596445 -3.40784,-4.138084 -2.10961,-1.541639 -4.94947,-1.541639 -2.02847,0 -3.89467,0.973666 -1.86619,0.973667 -3.32669,2.677584 -1.4605,1.622778 -2.35303,3.732389 v 8.92528 q 0.64911,1.379361 1.62278,2.515305 0.97366,1.054806 2.10961,1.785056 1.21708,0.73025 2.5153,1.217084 1.37937,0.405694 2.67759,0.405694 z" />
    </g>
    <g
       style="font-style:italic;font-variant:normal;font-weight:bold;font-stretch:normal;font-size:141.111px;line-height:1.25;font-family:Arial;-inkscape-font-specification:'Arial, Bold Italic';font-variant-ligatures:normal;font-variant-caps:normal;font-variant-numeric:normal;font-variant-east-asian:normal;fill:#ffffff;stroke-width:0.264583"
       id="text858-8"
       aria-label="a">
      <path
         id="path898"
         style="font-style:normal;font-variant:normal;font-weight:800;font-stretch:normal;font-size:81.139px;font-family:Raleway;-inkscape-font-specification:'Raleway, Ultra-Bold';font-variant-ligatures:normal;font-variant-caps:normal;font-variant-numeric:normal;font-variant-east-asian:normal;fill:#ffffff;stroke-width:0.264583"
         d="m -48.332541,71.23999 q 0,-4.219228 2.353031,-7.383649 2.353031,-3.164421 6.49112,-4.949479 4.138089,-1.866197 9.493262,-1.866197 2.596448,0 5.111757,0.486834 2.515309,0.405695 4.381506,1.217085 v -1.866197 q 0,-3.488977 -2.109614,-5.355174 -2.109614,-1.866197 -6.409981,-1.866197 -3.570116,0 -6.734536,1.217085 -3.083282,1.217085 -6.572259,3.488977 L -46.222927,46.0869 q 4.219228,-2.758726 8.763012,-4.138089 4.624922,-1.379363 9.736679,-1.379363 9.574402,0 14.848437,4.624923 5.3551745,4.543784 5.3551745,13.225657 v 11.116043 q 0,1.947336 0.567973,2.758726 0.649112,0.730251 2.190753,0.892529 v 10.791487 q -1.62278,0.324556 -3.083282,0.486834 -1.379363,0.162278 -2.4341705,0.162278 -3.651255,0 -5.598591,-1.460502 -1.866197,-1.460502 -2.353031,-3.975811 l -0.243417,-1.866197 q -2.839865,3.651255 -6.815676,5.598591 -3.894672,1.866197 -8.195038,1.866197 -4.219228,0 -7.627066,-1.785058 -3.326699,-1.785058 -5.274035,-4.86834 -1.947336,-3.083282 -1.947336,-6.896815 z m 25.802201,1.62278 q 0.892529,-0.730251 1.460502,-1.62278 0.567973,-0.892529 0.567973,-1.703919 v -3.813533 q -1.62278,-0.649112 -3.651255,-0.973668 -1.947336,-0.405695 -3.651255,-0.405695 -3.570116,0 -5.923146,1.62278 -2.353031,1.541641 -2.353031,4.138089 0,1.460502 0.81139,2.677587 0.81139,1.217085 2.190752,1.947336 1.460502,0.730251 3.407838,0.730251 1.947336,0 3.894672,-0.730251 1.947336,-0.730251 3.24556,-1.866197 z" />
    </g>
  </g>
</svg>
